#N canvas 552 22 354 378 10;
#N canvas 1499 272 450 300 bpm 0;
#X obj 92 92 metro 120;
#X obj 127 116 + 1;
#X obj 92 116 int;
#X floatatom 127 179 5 0 0 0 - - -;
#X obj 127 206 outlet;
#X obj 92 34 inlet;
#X obj 143 34 inlet;
#X floatatom 160 116 5 0 0 0 - - -;
#X obj 127 145 mod \$1;
#X obj 160 57 r steps;
#X connect 0 0 2 0;
#X connect 1 0 8 0;
#X connect 2 0 1 0;
#X connect 3 0 2 1;
#X connect 3 0 4 0;
#X connect 5 0 0 0;
#X connect 6 0 0 1;
#X connect 7 0 8 1;
#X connect 8 0 3 0;
#X connect 9 0 7 0;
#X restore -3 -149 pd bpm;
#X obj 42 -149 s bpm;
#X obj -3 -174 tgl 15 0 empty empty empty 17 7 0 10 -262144 -1 -1 1
1;
#X obj -3 -72 tgl 20 0 empty empty empty 17 7 0 10 -262144 -1 -1 1
1;
#X obj 18 -72 tgl 20 0 empty empty empty 17 7 0 10 -262144 -1 -1 1
1;
#X obj 39 -72 tgl 20 0 empty empty empty 17 7 0 10 -262144 -1 -1 1
1;
#X obj 60 -72 tgl 20 0 empty empty empty 17 7 0 10 -262144 -1 -1 1
1;
#X obj 81 -72 tgl 20 0 empty empty empty 17 7 0 10 -262144 -1 -1 0
1;
#X obj 102 -72 tgl 20 0 empty empty empty 17 7 0 10 -262144 -1 -1 0
1;
#X obj 123 -72 tgl 20 0 empty empty empty 17 7 0 10 -262144 -1 -1 0
1;
#X obj 144 -72 tgl 20 0 empty empty empty 17 7 0 10 -262144 -1 -1 0
1;
#X obj -3 -45 s step;
#N canvas 544 449 763 511 stepsequencer 1;
#X obj 250 5 inlet;
#X obj 287 5 inlet;
#X obj 324 5 inlet;
#X obj 361 5 inlet;
#X obj 398 5 inlet;
#X obj 435 5 inlet;
#X obj 472 5 inlet;
#X obj 509 5 inlet;
#X obj 250 25 tgl 15 0 empty empty empty 17 7 0 10 -262144 -1 -1 1
1;
#X obj 287 25 tgl 15 0 empty empty empty 17 7 0 10 -262144 -1 -1 1
1;
#X obj 324 25 tgl 15 0 empty empty empty 17 7 0 10 -262144 -1 -1 1
1;
#X obj 361 25 tgl 15 0 empty empty empty 17 7 0 10 -262144 -1 -1 1
1;
#X obj 398 25 tgl 15 0 empty empty empty 17 7 0 10 -262144 -1 -1 0
1;
#X obj 435 26 tgl 15 0 empty empty empty 17 7 0 10 -262144 -1 -1 0
1;
#X obj 472 26 tgl 15 0 empty empty empty 17 7 0 10 -262144 -1 -1 0
1;
#X obj 509 26 tgl 15 0 empty empty empty 17 7 0 10 -262144 -1 -1 0
1;
#X obj 199 78 r step;
#X msg 250 44 1;
#X obj 511 173 tgl 15 0 empty empty empty 17 7 0 10 -262144 -1 -1 1
1;
#X msg 287 44 2;
#X msg 324 44 3;
#X msg 361 44 4;
#X msg 398 45 5;
#X msg 435 46 6;
#X msg 472 46 7;
#X msg 509 46 8;
#X obj 527 173 tgl 15 0 empty empty empty 17 7 0 10 -262144 -1 -1 1
1;
#X obj 544 173 tgl 15 0 empty empty empty 17 7 0 10 -262144 -1 -1 1
1;
#X obj 561 173 tgl 15 0 empty empty empty 17 7 0 10 -262144 -1 -1 1
1;
#X obj 577 173 tgl 15 0 empty empty empty 17 7 0 10 -262144 -1 -1 0
1;
#X obj 594 173 tgl 15 0 empty empty empty 17 7 0 10 -262144 -1 -1 0
1;
#X obj 611 173 tgl 15 0 empty empty empty 17 7 0 10 -262144 -1 -1 0
1;
#X obj 627 173 tgl 15 0 empty empty empty 17 7 0 10 -262144 -1 -1 0
1;
#N canvas 1345 457 331 326 drums 0;
#X obj 130 213 readsf~;
#X obj 130 247 dac~;
#X msg 130 122 bang;
#X msg 130 187 open \$1 \, 1;
#X obj 130 85 inlet;
#X msg 130 158 read drums/0001.wav;
#X connect 0 0 1 0;
#X connect 0 0 1 1;
#X connect 2 0 5 0;
#X connect 3 0 0 0;
#X connect 4 0 2 0;
#X connect 5 0 3 0;
#X restore 199 374 pd drums;
#X obj 199 103 + 1;
#X floatatom 199 126 5 0 0 0 - - -;
#X obj 199 174 bng 15 250 50 0 empty empty empty 17 7 0 10 -262144
-1 -1;
#X obj 199 319 bng 15 250 50 0 empty empty empty 17 7 0 10 -262144
-1 -1;
#X obj 199 296 spigot;
#X obj 215 174 bng 15 250 50 0 empty empty empty 17 7 0 10 -262144
-1 -1;
#X obj 232 174 bng 15 250 50 0 empty empty empty 17 7 0 10 -262144
-1 -1;
#X obj 249 174 bng 15 250 50 0 empty empty empty 17 7 0 10 -262144
-1 -1;
#X obj 265 174 bng 15 250 50 0 empty empty empty 17 7 0 10 -262144
-1 -1;
#X obj 282 174 bng 15 250 50 0 empty empty empty 17 7 0 10 -262144
-1 -1;
#X obj 299 174 bng 15 250 50 0 empty empty empty 17 7 0 10 -262144
-1 -1;
#X obj 315 174 bng 15 250 50 0 empty empty empty 17 7 0 10 -262144
-1 -1;
#X obj 255 319 bng 15 250 50 0 empty empty empty 17 7 0 10 -262144
-1 -1;
#X obj 255 296 spigot;
#X obj 312 319 bng 15 250 50 0 empty empty empty 17 7 0 10 -262144
-1 -1;
#X obj 312 296 spigot;
#X obj 368 319 bng 15 250 50 0 empty empty empty 17 7 0 10 -262144
-1 -1;
#X obj 368 296 spigot;
#X obj 425 318 bng 15 250 50 0 empty empty empty 17 7 0 10 -262144
-1 -1;
#X obj 425 295 spigot;
#X obj 481 318 bng 15 250 50 0 empty empty empty 17 7 0 10 -262144
-1 -1;
#X obj 481 295 spigot;
#X obj 538 318 bng 15 250 50 0 empty empty empty 17 7 0 10 -262144
-1 -1;
#X obj 538 295 spigot;
#X obj 594 318 bng 15 250 50 0 empty empty empty 17 7 0 10 -262144
-1 -1;
#X obj 594 295 spigot;
#N canvas 541 526 485 516 drums 0;
#X obj 130 213 readsf~;
#X obj 130 247 dac~;
#X msg 130 122 bang;
#X msg 130 187 open \$1 \, 1;
#X obj 130 85 inlet;
#X msg 130 158 read drums/0002.wav;
#X connect 0 0 1 0;
#X connect 0 0 1 1;
#X connect 2 0 5 0;
#X connect 3 0 0 0;
#X connect 4 0 2 0;
#X connect 5 0 3 0;
#X restore 255 374 pd drums;
#N canvas 18 556 485 516 drums 0;
#X obj 130 213 readsf~;
#X obj 130 247 dac~;
#X msg 130 122 bang;
#X msg 130 187 open \$1 \, 1;
#X obj 130 85 inlet;
#X msg 130 158 read drums/0003.wav;
#X connect 0 0 1 0;
#X connect 0 0 1 1;
#X connect 2 0 5 0;
#X connect 3 0 0 0;
#X connect 4 0 2 0;
#X connect 5 0 3 0;
#X restore 312 374 pd drums;
#N canvas 18 556 485 516 drums 0;
#X obj 130 213 readsf~;
#X obj 130 247 dac~;
#X msg 130 122 bang;
#X msg 130 187 open \$1 \, 1;
#X obj 130 85 inlet;
#X msg 130 158 read drums/0004.wav;
#X connect 0 0 1 0;
#X connect 0 0 1 1;
#X connect 2 0 5 0;
#X connect 3 0 0 0;
#X connect 4 0 2 0;
#X connect 5 0 3 0;
#X restore 368 374 pd drums;
#N canvas 779 485 485 516 drums 0;
#X msg 130 208 goto \$1 \, this;
#X floatatom 130 177 5 0 0 0 - - -;
#X obj 130 251 msgfile;
#X obj 130 323 readsf~;
#X obj 130 357 dac~;
#X msg 130 122 bang;
#X msg 130 297 open \$1 \, 1;
#X msg 231 208 read drums.txt cr;
#X obj 130 85 inlet;
#X obj 231 185 loadbang;
#X obj 195 151 + 1;
#X obj 221 151 s drum5;
#X obj 130 151 random 16;
#X connect 0 0 2 0;
#X connect 1 0 0 0;
#X connect 2 0 6 0;
#X connect 3 0 4 0;
#X connect 3 0 4 1;
#X connect 5 0 12 0;
#X connect 6 0 3 0;
#X connect 7 0 2 0;
#X connect 8 0 5 0;
#X connect 9 0 7 0;
#X connect 10 0 11 0;
#X connect 12 0 1 0;
#X connect 12 0 10 0;
#X restore 425 374 pd drums;
#N canvas 18 556 485 516 drums 0;
#X msg 130 208 goto \$1 \, this;
#X floatatom 130 177 5 0 0 0 - - -;
#X obj 130 251 msgfile;
#X obj 130 323 readsf~;
#X obj 130 357 dac~;
#X msg 130 122 bang;
#X msg 130 297 open \$1 \, 1;
#X msg 231 208 read drums.txt cr;
#X obj 130 85 inlet;
#X obj 231 185 loadbang;
#X obj 195 151 + 1;
#X obj 221 151 s drum6;
#X obj 130 151 random 22;
#X connect 0 0 2 0;
#X connect 1 0 0 0;
#X connect 2 0 6 0;
#X connect 3 0 4 0;
#X connect 3 0 4 1;
#X connect 5 0 12 0;
#X connect 6 0 3 0;
#X connect 7 0 2 0;
#X connect 8 0 5 0;
#X connect 9 0 7 0;
#X connect 10 0 11 0;
#X connect 12 0 1 0;
#X connect 12 0 10 0;
#X restore 481 374 pd drums;
#N canvas 18 556 485 516 drums 0;
#X msg 130 208 goto \$1 \, this;
#X floatatom 130 177 5 0 0 0 - - -;
#X obj 130 251 msgfile;
#X obj 130 323 readsf~;
#X obj 130 357 dac~;
#X msg 130 122 bang;
#X msg 130 297 open \$1 \, 1;
#X msg 231 208 read drums.txt cr;
#X obj 130 85 inlet;
#X obj 231 185 loadbang;
#X obj 195 151 + 1;
#X obj 221 151 s drum7;
#X obj 130 151 random 22;
#X connect 0 0 2 0;
#X connect 1 0 0 0;
#X connect 2 0 6 0;
#X connect 3 0 4 0;
#X connect 3 0 4 1;
#X connect 5 0 12 0;
#X connect 6 0 3 0;
#X connect 7 0 2 0;
#X connect 8 0 5 0;
#X connect 9 0 7 0;
#X connect 10 0 11 0;
#X connect 12 0 1 0;
#X connect 12 0 10 0;
#X restore 538 374 pd drums;
#N canvas 18 556 485 516 drums 0;
#X msg 130 208 goto \$1 \, this;
#X floatatom 130 177 5 0 0 0 - - -;
#X obj 130 251 msgfile;
#X obj 130 323 readsf~;
#X obj 130 357 dac~;
#X msg 130 122 bang;
#X msg 130 297 open \$1 \, 1;
#X msg 231 208 read drums.txt cr;
#X obj 130 85 inlet;
#X obj 231 185 loadbang;
#X obj 195 151 + 1;
#X obj 221 151 s drum8;
#X obj 130 151 random 22;
#X connect 0 0 2 0;
#X connect 1 0 0 0;
#X connect 2 0 6 0;
#X connect 3 0 4 0;
#X connect 3 0 4 1;
#X connect 5 0 12 0;
#X connect 6 0 3 0;
#X connect 7 0 2 0;
#X connect 8 0 5 0;
#X connect 9 0 7 0;
#X connect 10 0 11 0;
#X connect 12 0 1 0;
#X connect 12 0 10 0;
#X restore 594 374 pd drums;
#X obj 199 150 select 1 2 3 4 5 6 7 8;
#X obj 511 150 select 1 2 3 4 5 6 7 8;
#X obj 205 342 s Bang1;
#X obj 600 342 s Bang8;
#X obj 545 342 s Bang7;
#X obj 486 342 s Bang6;
#X obj 432 342 s Bang5;
#X obj 374 342 s Bang4;
#X obj 319 342 s Bang3;
#X obj 260 342 s Bang2;
#X connect 0 0 8 0;
#X connect 1 0 9 0;
#X connect 2 0 10 0;
#X connect 3 0 11 0;
#X connect 4 0 12 0;
#X connect 5 0 13 0;
#X connect 6 0 14 0;
#X connect 7 0 15 0;
#X connect 8 0 17 0;
#X connect 9 0 19 0;
#X connect 10 0 20 0;
#X connect 11 0 21 0;
#X connect 12 0 22 0;
#X connect 13 0 23 0;
#X connect 14 0 24 0;
#X connect 15 0 25 0;
#X connect 16 0 34 0;
#X connect 17 0 68 0;
#X connect 18 0 38 1;
#X connect 19 0 68 0;
#X connect 20 0 68 0;
#X connect 21 0 68 0;
#X connect 22 0 68 0;
#X connect 23 0 68 0;
#X connect 24 0 68 0;
#X connect 25 0 68 0;
#X connect 26 0 47 1;
#X connect 27 0 49 1;
#X connect 28 0 51 1;
#X connect 29 0 53 1;
#X connect 30 0 55 1;
#X connect 31 0 57 1;
#X connect 32 0 59 1;
#X connect 34 0 35 0;
#X connect 35 0 67 0;
#X connect 36 0 38 0;
#X connect 37 0 33 0;
#X connect 37 0 69 0;
#X connect 38 0 37 0;
#X connect 39 0 47 0;
#X connect 40 0 49 0;
#X connect 41 0 51 0;
#X connect 42 0 53 0;
#X connect 43 0 55 0;
#X connect 44 0 57 0;
#X connect 45 0 59 0;
#X connect 46 0 76 0;
#X connect 46 0 60 0;
#X connect 47 0 46 0;
#X connect 48 0 75 0;
#X connect 48 0 61 0;
#X connect 49 0 48 0;
#X connect 50 0 74 0;
#X connect 50 0 62 0;
#X connect 51 0 50 0;
#X connect 52 0 63 0;
#X connect 52 0 73 0;
#X connect 53 0 52 0;
#X connect 54 0 64 0;
#X connect 54 0 72 0;
#X connect 55 0 54 0;
#X connect 56 0 65 0;
#X connect 56 0 71 0;
#X connect 57 0 56 0;
#X connect 58 0 66 0;
#X connect 58 0 70 0;
#X connect 59 0 58 0;
#X connect 67 0 36 0;
#X connect 67 1 39 0;
#X connect 67 2 40 0;
#X connect 67 3 41 0;
#X connect 67 4 42 0;
#X connect 67 5 43 0;
#X connect 67 6 44 0;
#X connect 67 7 45 0;
#X connect 68 0 18 0;
#X connect 68 1 26 0;
#X connect 68 2 27 0;
#X connect 68 3 28 0;
#X connect 68 4 29 0;
#X connect 68 5 30 0;
#X connect 68 6 31 0;
#X connect 68 7 32 0;
#X restore 51 -45 pd stepsequencer;
#N canvas 944 22 530 811 randompatterns 0;
#X obj 94 33 r step;
#X obj 129 127 + 1;
#X floatatom 129 190 5 0 0 0 - - -;
#X obj 94 94 bng 15 250 50 0 empty empty empty 17 7 0 10 -262144 -1
-1;
#X obj 94 127 f;
#X obj 164 278 + 1;
#X obj 129 245 bng 15 250 50 0 empty empty empty 17 7 0 10 -262144
-1 -1;
#X obj 129 278 f;
#X obj 164 384 bng 15 250 50 0 empty empty empty 17 7 0 10 -262144
-1 -1;
#X obj 68 467 sel 1;
#X obj 68 489 tgl 15 0 empty empty empty 17 7 0 10 -262144 -1 -1 1
1;
#X obj 68 509 outlet;
#X obj 111 489 tgl 15 0 empty empty empty 17 7 0 10 -262144 -1 -1 1
1;
#X obj 111 509 outlet;
#X obj 111 467 sel 2;
#X obj 154 489 tgl 15 0 empty empty empty 17 7 0 10 -262144 -1 -1 1
1;
#X obj 154 509 outlet;
#X obj 197 489 tgl 15 0 empty empty empty 17 7 0 10 -262144 -1 -1 1
1;
#X obj 197 509 outlet;
#X obj 154 467 sel 3;
#X obj 197 467 sel 4;
#X obj 240 489 tgl 15 0 empty empty empty 17 7 0 10 -262144 -1 -1 0
1;
#X obj 240 509 outlet;
#X obj 283 489 tgl 15 0 empty empty empty 17 7 0 10 -262144 -1 -1 0
1;
#X obj 283 509 outlet;
#X obj 326 489 tgl 15 0 empty empty empty 17 7 0 10 -262144 -1 -1 0
1;
#X obj 326 509 outlet;
#X obj 369 489 tgl 15 0 empty empty empty 17 7 0 10 -262144 -1 -1 0
1;
#X obj 369 509 outlet;
#X obj 240 467 sel 5;
#X obj 283 467 sel 6;
#X obj 326 467 sel 7;
#X obj 369 467 sel 8;
#X obj 183 383 loadbang;
#X obj 129 158 mod \$1;
#X obj 164 309 mod \$1;
#X obj 94 67 sel \$1;
#X obj 138 33 r stepsMinus;
#X obj 165 189 r stepsMinus;
#X obj 129 218 sel \$1;
#X obj 240 383 r stepsPlus;
#X obj 164 411 random \$1;
#X obj 162 127 r steps;
#X obj 197 278 r steps;
#X connect 0 0 36 0;
#X connect 1 0 34 0;
#X connect 2 0 39 0;
#X connect 3 0 4 0;
#X connect 4 0 1 0;
#X connect 5 0 35 0;
#X connect 6 0 7 0;
#X connect 7 0 5 0;
#X connect 8 0 41 0;
#X connect 9 0 10 0;
#X connect 10 0 11 0;
#X connect 12 0 13 0;
#X connect 14 0 12 0;
#X connect 15 0 16 0;
#X connect 17 0 18 0;
#X connect 19 0 15 0;
#X connect 20 0 17 0;
#X connect 21 0 22 0;
#X connect 23 0 24 0;
#X connect 25 0 26 0;
#X connect 27 0 28 0;
#X connect 29 0 21 0;
#X connect 30 0 23 0;
#X connect 31 0 25 0;
#X connect 32 0 27 0;
#X connect 33 0 41 0;
#X connect 34 0 2 0;
#X connect 34 0 4 1;
#X connect 35 0 7 1;
#X connect 35 0 8 0;
#X connect 36 0 3 0;
#X connect 37 0 36 1;
#X connect 38 0 39 1;
#X connect 39 0 6 0;
#X connect 40 0 41 1;
#X connect 41 0 9 0;
#X connect 41 0 14 0;
#X connect 41 0 19 0;
#X connect 41 0 20 0;
#X connect 41 0 29 0;
#X connect 41 0 30 0;
#X connect 41 0 31 0;
#X connect 41 0 32 0;
#X connect 42 0 34 1;
#X connect 43 0 35 1;
#X restore 45 -120 pd randompatterns;
#X obj -26 -343 cnv 15 100 100 empty empty empty 20 12 0 14 -162280
-66577 0;
#X msg -3 -299 \; pd dsp \$1;
#X obj -3 -322 tgl 20 0 empty empty empty 25 8 0 8 -258699 -1 -1 0
1;
#X obj -3 -95 hradio 21 1 0 8 empty empty empty 0 -8 0 10 -258113 -1
-1 1;
#X obj -3 -224 loadbang;
#X msg 30 -174 240;
#N canvas 1421 650 450 300 tiles 0;
#X obj 170 39 r num_steps;
#X floatatom 170 97 5 0 0 0 - - -;
#X obj 223 172 + 1;
#X obj 223 145 int;
#X floatatom 223 200 5 0 0 0 - - -;
#X obj 82 145 int;
#X floatatom 82 200 5 0 0 0 - - -;
#X obj 82 172 - 1;
#X obj 131 39 inlet;
#X obj 131 67 bng 15 250 50 0 empty empty empty 17 7 0 10 -262144 -1
-1;
#X obj 170 239 s steps;
#X obj 223 239 s stepsPlus;
#X obj 82 238 s stepsMinus;
#X msg 183 69 4;
#X connect 0 0 1 0;
#X connect 1 0 3 0;
#X connect 1 0 5 0;
#X connect 1 0 10 0;
#X connect 2 0 4 0;
#X connect 3 0 2 0;
#X connect 4 0 11 0;
#X connect 5 0 7 0;
#X connect 6 0 12 0;
#X connect 7 0 6 0;
#X connect 8 0 9 0;
#X connect 9 0 1 0;
#X connect 13 0 1 0;
#X restore 64 -174 pd tiles;
#X connect 0 0 17 0;
#X connect 2 0 0 0;
#X connect 3 0 12 0;
#X connect 4 0 12 1;
#X connect 5 0 12 2;
#X connect 6 0 12 3;
#X connect 7 0 12 4;
#X connect 8 0 12 5;
#X connect 9 0 12 6;
#X connect 10 0 12 7;
#X connect 13 0 3 0;
#X connect 13 1 4 0;
#X connect 13 2 5 0;
#X connect 13 3 6 0;
#X connect 13 4 7 0;
#X connect 13 5 8 0;
#X connect 13 6 9 0;
#X connect 13 7 10 0;
#X connect 16 0 15 0;
#X connect 17 0 11 0;
#X connect 18 0 16 0;
#X connect 18 0 19 0;
#X connect 18 0 2 0;
#X connect 18 0 20 0;
#X connect 19 0 0 1;
#X connect 19 0 1 0;
